<svg version="1.2" xmlns="http://www.w3.org/2000/svg" viewBox="0 0 819 219" width="819" height="219"><style>.a{fill:#ff461b}.b{fill:#fff}.c{fill:#2c2e35}</style><path class="a" d="m246.4 110.9c0-33.4-27-60.4-60.4-60.4-33.4 0-60.4 27-60.4 60.4 0 33.4 27 60.4 60.4 60.4 33.4 0 60.4-27 60.4-60.4z"/><path class="a" d="m246.4 106.7h-120.8v-59.5h120.8z"/><path class="b" d="m185.2 117.5c-1.8 0.4-3.8-0.3-5.6-1.2-1.4-0.7-0.8-2.2-0.5-3.4q5.4-21.8 10.9-43.5c0.6-2.6 1.2-2.9 3.8-2.3 4.7 1.1 4.7 1.2 3.6 5.8q-5.3 20.9-10.5 41.8c-0.2 1-0.4 2-1.7 2.8z"/><path class="b" d="m172 144.4c-0.4-0.8-0.2-1.3-0.1-1.8 2-7.8 4-15.6 5.9-23.4 0.3-1.4 0.9-1.9 2.3-1.4 1.3 0.4 2.6 0.7 4 1 0.9 0.2 1.1 0.7 0.6 1.5-2.5 3.8-3.3 8.1-3.2 12.6 0.1 2.6-1 4.9-3 6.5-2.1 1.7-4.2 3.3-6.5 5z"/><path class="b" d="m162.9 125.4q-0.6 0-1.2-0.8-1.3-1.4-21-13.6l-6.5-4.1q-1.5-1.2-1.5-2.2 0-1.7 1.8-3.1 15-11.5 28.6-19.8 0.7-0.5 1.2-0.5 1.3 0 1.3 2.6 0 2.4-1.7 3.8-14.8 9-21.5 14.6-0.8 0.5-0.8 1.1 0 0.6 0.6 0.9 17 10.2 21.3 13.8 1.4 0.8 1.4 2.7 0 4.6-2 4.6z"/><path class="b" d="m211.5 124.8q-0.6 0.7-1.2 0.7-1.1 0-1.6-1.3-0.4-1.4-0.4-2.6 0-2.2 1.7-3.5 4.4-3.5 16.6-10.9l4.4-2.7q0.6-0.3 0.6-0.8 0-0.8-0.8-1.3-6-4.9-17.5-12.2l-3.9-2.3q-1.8-1.4-1.8-3.8 0-2.6 1.3-2.6l1.2 0.5q11.7 7 24.5 16.6l4.1 3.2q1.8 1.2 1.8 2.6 0 1.5-1.5 2.7-25.8 15.9-27.5 17.7z"/><path class="c" d="m521.5 137.9v10.6q-7.6-0.2-11.8-1.5-4.3-1.3-6.1-4.5-1.7-3.1-1.7-8.7v-13.3q0-4-0.9-5.9-1-1.9-4.6-2.3v-7.8q3.6-0.4 4.6-2.3 0.9-1.9 0.9-5.8v-13.4q0-5.6 1.7-8.7 1.8-3.1 6.1-4.4 4.2-1.4 11.8-1.6v10.7q-2.2 0.1-3.9 0.7-1.7 0.5-1.7 2.6v15q0 3.8-1.2 6.1-1.2 2.2-3.2 3.4-2 1.1-4.2 1.6 2.2 0.5 4.2 1.7 2 1.1 3.2 3.4 1.2 2.2 1.2 6.1v14.9q0 2.1 1.7 2.7 1.7 0.5 3.9 0.7zm27.7 0v10.6q-7.5-0.2-11.8-1.5-4.3-1.3-6-4.5-1.7-3.1-1.7-8.7v-13.3q0-4-1-5.9-0.9-1.9-4.6-2.3v-7.8q3.7-0.4 4.6-2.3 1-1.9 1-5.8v-13.4q0-5.6 1.7-8.7 1.7-3.1 6-4.4 4.3-1.4 11.8-1.6v10.7q-2.1 0.1-3.8 0.7-1.7 0.5-1.7 2.6v15q0 3.8-1.2 6.1-1.2 2.2-3.2 3.4-2 1.1-4.3 1.6 2.3 0.5 4.3 1.7 2 1.1 3.2 3.4 1.2 2.2 1.2 6.1v14.9q0 2.1 1.7 2.7 1.7 0.5 3.8 0.7zm22.3 3.7q-10.1 0-14.3-5.1-4.2-5.1-4.2-15.1v-18.4q0-7.5 1.6-12.5 1.6-5 5.6-7.4 4-2.5 11.1-2.5 4.9 0 8.8 1.7 4 1.8 6.2 5.2 2.3 3.4 2.3 8.3v9.1h-14.5v-8.4q0-2-0.6-3.4-0.6-1.5-2.6-1.5-3.5 0-3.5 5v29q0 1.8 0.8 3.4 0.8 1.5 2.6 1.5 1.9 0 2.6-1.5 0.7-1.5 0.7-3.5v-10h14.5v10.4q0 4.9-2.2 8.5-2.2 3.5-6.1 5.4-3.9 1.8-8.8 1.8zm39.5 0q-17.9 0-17.9-18.5v-24q0-8.4 4.7-13.5 4.8-5 13.2-5 8.4 0 13.1 5 4.8 5.1 4.8 13.5v24q0 18.5-17.9 18.5zm0-11q1.8 0 2.5-1.2 0.8-1.4 0.8-3.3v-29.3q0-5.2-3.3-5.2-3.4 0-3.4 5.2v29.3q0 1.9 0.8 3.3 0.8 1.2 2.6 1.2zm34.9 11q-4.2 0-6.6-1.5-2.4-1.5-3.6-4.2-1.2-2.6-1.6-6.2-0.4-3.6-0.4-7.7v-26q0-6.9 2.4-11.2 2.5-4.2 8.4-4.2 4.3 0 6.6 1.9 2.4 1.8 3.7 5.1v-16.7h14.5v70.1h-14.5v-6.3q-1.2 3.2-3.2 5.1-2 1.8-5.7 1.8zm5.4-11.1q2.1 0 2.7-1.7 0.8-1.6 0.8-5.8v-25.2q0-2.1-0.7-4.1-0.6-2.1-2.7-2.1-2.3 0-2.9 2-0.6 1.9-0.6 4.2v25.2q0 7.5 3.4 7.5zm40.2 11.1q-6.4 0-10.2-2.4-3.7-2.3-5.4-6.8-1.6-4.6-1.6-10.9v-24q0-8.3 4.8-12.6 4.8-4.3 13.1-4.3 17.2 0 17.2 16.9v4.3q0 7.9-0.1 10.6h-20.7v11.6q0 1.6 0.2 3.1 0.2 1.5 0.8 2.5 0.7 1 2.3 1 2.2 0 2.8-1.9 0.5-1.9 0.5-5v-5.8h14.2v3.4q0 6.7-1.6 11.3-1.7 4.5-5.6 6.8-3.9 2.2-10.7 2.2zm-3-44.3v8h6.7v-8q0-3.2-0.7-4.6-0.8-1.5-2.4-1.5-1.8 0-2.7 1.4-0.9 1.3-0.9 4.7zm24.8 51.2v-10.6q2.2-0.2 3.9-0.7 1.7-0.6 1.7-2.7v-14.9q0-3.9 1.2-6.1 1.2-2.3 3.2-3.4 2-1.2 4.3-1.7-2.3-0.5-4.3-1.6-2-1.2-3.2-3.4-1.2-2.3-1.2-6.1v-15q0-2.1-1.7-2.6-1.7-0.6-3.9-0.7v-10.7q7.6 0.2 11.9 1.6 4.2 1.3 6 4.4 1.7 3.1 1.7 8.7v13.4q0 3.9 1 5.8 0.9 1.9 4.6 2.3v7.8q-3.7 0.4-4.6 2.3-1 1.9-1 5.9v13.3q0 5.6-1.7 8.7-1.8 3.2-6 4.5-4.3 1.3-11.9 1.5zm27.8 0v-10.6q2.2-0.2 3.8-0.7 1.8-0.6 1.8-2.7v-14.9q0-3.9 1.2-6.1 1.2-2.3 3.2-3.4 2-1.2 4.2-1.7-2.2-0.5-4.2-1.6-2-1.2-3.2-3.4-1.2-2.3-1.2-6.1v-15q0-2.1-1.8-2.6-1.6-0.6-3.8-0.7v-10.7q7.6 0.2 11.9 1.6 4.2 1.3 5.9 4.4 1.8 3.1 1.8 8.7v13.4q0 3.9 0.9 5.8 1 1.9 4.6 2.3v7.8q-3.6 0.4-4.6 2.3-0.9 1.9-0.9 5.9v13.3q0 5.6-1.8 8.7-1.7 3.2-5.9 4.5-4.3 1.3-11.9 1.5z"/><path class="c" d="m288.1 124.5q-7.6 0-11-3.8-3.3-3.8-3.3-12.1v-5.4h11v6.9q0 2 0.5 3.1 0.7 1 2.1 1 1.5 0 2.1-0.8 0.6-0.9 0.6-2.9 0-2.6-0.5-4.3-0.5-1.8-1.8-3.3-1.2-1.6-3.4-3.7l-5-4.7q-5.6-5.3-5.6-12.1 0-7.2 3.3-10.9 3.3-3.7 9.5-3.7 7.7 0 10.9 4.1 3.2 4 3.2 12.4h-11.3v-3.9q0-1.1-0.7-1.7-0.6-0.7-1.7-0.7-1.3 0-2 0.8-0.6 0.7-0.6 1.9 0 1.2 0.7 2.5 0.6 1.4 2.5 3.2l6.4 6.1q1.9 1.9 3.5 3.9 1.7 2.1 2.6 4.8 1 2.7 1 6.6 0 7.8-2.9 12.3-2.9 4.4-10.1 4.4zm29.6 0q-7 0-10.3-3.9-3.2-3.9-3.2-11.5v-40.8h10.8v40.3q0 1.4 0.1 2.7 0.2 1.3 0.8 2.1 0.5 0.8 1.8 0.8 1.3 0 1.9-0.7 0.5-0.9 0.7-2.2 0.1-1.3 0.1-2.7v-40.3h10.9v40.8q0 7.6-3.3 11.5-3.3 3.9-10.3 3.9zm29.1-0.5h-11.3v-55.7h17.1q4.3 0 6.5 1.9 2.2 2 2.9 5.5 0.8 3.5 0.8 8.2 0 4.5-1.2 7.3-1.2 2.7-4.4 3.7 2.7 0.6 3.7 2.7 1.1 2 1.1 5.3v21.1h-11v-21.8q0-2.4-1-3-1-0.6-3.2-0.6zm0.1-45.4v10.3h2.7q2.3 0 2.3-5 0-3.3-0.5-4.3-0.6-1-1.9-1zm31 45.9q-11.9 0-11.9-17.1v-24q0-15.6 13.7-15.6 5.6 0 8.6 2.2 3 2.3 4.1 6.6 1.2 4.4 1.2 10.6h-10.9v-4.9q0-1.9-0.5-3.1-0.5-1.2-2-1.2-2 0-2.6 1.3-0.6 1.3-0.6 2.9v27q0 2.2 0.6 3.6 0.6 1.4 2.3 1.4 1.7 0 2.3-1.4 0.6-1.4 0.6-3.7v-7.9h-3v-9.7h13.7v32.5h-4.5l-1.9-4.7q-2.9 5.2-9.2 5.2zm43-0.5h-23v-55.7h22.2v10.7h-10.9v10.9h10.5v10.5h-10.5v12.7h11.7zm14.9 0h-11.3v-55.7h17.1q4.3 0 6.5 2 2.2 1.9 2.9 5.4 0.8 3.5 0.8 8.2 0 4.6-1.2 7.3-1.1 2.7-4.3 3.8 2.6 0.5 3.6 2.6 1.1 2 1.1 5.3v21.1h-11v-21.8q0-2.4-1-3-1-0.6-3.2-0.6zm0.1-45.4v10.3h2.7q2.3 0 2.3-5 0-3.3-0.5-4.3-0.5-1-1.9-1zm36.8 45.4h-10.5v-18.3l-8.9-37.4h11l3.1 18.8 3.1-18.8h11.1l-8.9 37.4z"/><path class="c" d="m281.4 130.9h-5.8v17.1h1.4v-6h4.4q1.2 0 2.1-0.3 0.9-0.3 1.5-1 0.6-0.6 0.9-1.7 0.4-1.1 0.4-2.6 0-1.5-0.4-2.6-0.3-1.1-0.9-1.7-0.6-0.6-1.5-0.9-0.9-0.3-2.1-0.3zm0.1 9.8h-4.5v-8.5h4.5q0.7 0 1.3 0.2 0.6 0.2 1.1 0.6 0.4 0.5 0.7 1.3 0.3 0.8 0.3 2.1 0 1.4-0.3 2.3-0.3 0.8-0.7 1.3-0.5 0.4-1.1 0.5-0.6 0.2-1.3 0.2zm13.3-4l0.1-1.1q0 0-0.4-0.1-0.3 0-0.7 0-1.4 0.1-2.3 0.4-1 0.3-1.9 0.7v-0.8h-1.4v12.2h1.4v-10q0.3-0.2 0.8-0.4 0.5-0.3 1.1-0.4 0.5-0.2 1.1-0.3 0.6-0.2 1.1-0.2 0.4 0 0.7 0 0.4 0 0.4 0zm10.3 6.8v-3.2q0-2.3-1.2-3.5-1.1-1.3-3.3-1.3-1.4 0-2.4 0.6-1.1 0.5-1.6 1.6-0.5 1-0.5 2.6v3.2q0 1.3 0.5 2.4 0.5 1 1.5 1.7 1.1 0.6 2.6 0.6 2.2 0 3.3-1.3 1.1-1.3 1.1-3.4zm-1.4-3.2v3.4q0 1-0.3 1.8-0.3 0.7-1 1.1-0.7 0.4-1.7 0.4-1 0-1.7-0.4-0.8-0.4-1.2-1.1-0.4-0.8-0.4-1.8v-3.4q0-1.2 0.4-2 0.4-0.8 1.1-1.2 0.7-0.4 1.8-0.4 1 0 1.7 0.4 0.7 0.4 1 1.2 0.3 0.8 0.3 2zm12.4 9.3v-13.8h-1.4v1.1q-0.6-0.4-1.2-0.7-0.5-0.3-1.1-0.5-0.6-0.1-1.2-0.2-1.3 0-2.3 0.5-0.9 0.4-1.4 1.3-0.5 1-0.5 2.2v4.2q0 2.2 1.1 3.4 1.1 1.2 3.1 1.2 0.6 0 1.1-0.1 0.5-0.2 1-0.4 0.5-0.3 0.8-0.6 0.4-0.3 0.6-0.7v3q0 0.5-0.2 0.9-0.1 0.4-0.2 0.8-0.2 0.3-0.6 0.5-0.3 0.2-0.7 0.4l0.4 1.1q0.9-0.3 1.5-0.8 0.6-0.5 0.9-1.2 0.3-0.7 0.3-1.6zm-1.4-11.2v5.3q0 0.8-0.3 1.4-0.2 0.7-0.7 1.1-0.5 0.4-1.1 0.6-0.6 0.2-1.3 0.2-0.9 0-1.6-0.3-0.6-0.4-1-1-0.3-0.7-0.3-1.8v-4.3q0-0.8 0.3-1.4 0.2-0.6 0.7-0.9 0.4-0.3 1-0.4 0.5-0.2 1.1-0.1 0.4 0 0.8 0.1 0.5 0.1 0.9 0.4 0.5 0.1 0.8 0.4 0.4 0.3 0.7 0.7zm10-1.7l0.1-1.1q0 0-0.4-0.1-0.3 0-0.7 0-1.3 0.1-2.3 0.4-1 0.3-1.9 0.7v-0.8h-1.4v12.2h1.4v-10q0.4-0.2 0.9-0.4 0.4-0.3 1-0.4 0.6-0.2 1.2-0.3 0.5-0.2 1.1-0.2 0.4 0 0.7 0 0.3 0 0.3 0zm8.5 2.7q-0.6-0.3-1.3-0.6-0.7-0.3-1.4-0.5-0.8-0.1-1.6-0.1-0.7 0-1.4 0.1-0.7 0.2-1.2 0.7-0.5 0.4-0.9 1.1-0.3 0.7-0.3 1.7v2.1q0 1.3 0.5 2.2 0.4 0.9 1.1 1.4 0.8 0.4 1.8 0.6 1 0.2 2.2 0.1 0.4 0 0.8 0 0.6 0 1.1 0 0.5-0.1 1-0.1 0.4-0.1 0.7-0.1 0.3 0 0.3 0v-7q0-1.6-0.3-2.6-0.2-1-0.8-1.6-0.6-0.7-1.6-0.9-0.9-0.3-2.4-0.3l-0.1 1q0.8 0 1.4 0.1 0.7 0.1 1.2 0.4 0.6 0.3 0.9 0.9 0.3 0.5 0.3 1.4zm0 1.2v6.3q0 0-0.1 0-0.1 0-0.4 0-0.2 0-0.5 0.1-0.3 0-0.7 0-0.4 0-0.9 0.1-1.2 0-2-0.2-0.8-0.1-1.3-0.6-0.4-0.4-0.6-1.1-0.2-0.6-0.2-1.5v-1.8q0-0.8 0.2-1.4 0.3-0.5 0.6-0.7 0.4-0.3 0.8-0.4 0.4-0.1 0.7-0.1 0.8 0 1.5 0.2 0.8 0.2 1.5 0.5 0.7 0.3 1.4 0.6zm17.8-1v8.4h1.3v-8.4q0-1-0.2-1.7-0.3-0.8-0.8-1.3-0.5-0.5-1.2-0.8-0.8-0.2-1.8-0.2-0.7 0-1.4 0.1-0.6 0.2-1.3 0.5-0.6 0.3-1.2 0.7-0.3-0.4-0.8-0.7-0.4-0.3-1.1-0.5-0.6-0.1-1.4-0.1-0.6 0-1.1 0.1-0.5 0.1-1 0.4-0.5 0.2-1 0.5v-0.8h-1.4v12.2h1.4v-10.3q0.5-0.3 1-0.5 0.4-0.2 0.9-0.3 0.4-0.1 1-0.1 0.6 0 1.1 0.1 0.6 0.2 1 0.5 0.4 0.3 0.6 0.9 0.3 0.5 0.3 1.3v8.4h1.2v-8.4q0-0.5 0-1-0.1-0.4-0.2-0.8 0.5-0.4 1.1-0.6 0.5-0.2 1.1-0.3 0.5-0.1 1-0.1 0.5 0 1.1 0.1 0.5 0.2 0.9 0.5 0.4 0.3 0.7 0.9 0.2 0.5 0.2 1.3zm17.8 0v8.4h1.3v-8.4q0-1-0.3-1.7-0.2-0.8-0.7-1.3-0.5-0.5-1.3-0.8-0.7-0.2-1.7-0.2-0.7 0-1.4 0.1-0.7 0.2-1.3 0.5-0.7 0.3-1.2 0.7-0.3-0.4-0.8-0.7-0.5-0.3-1.1-0.5-0.6-0.1-1.4-0.1-0.6 0-1.1 0.1-0.6 0.1-1.1 0.4-0.5 0.2-0.9 0.5v-0.8h-1.4v12.2h1.4v-10.3q0.5-0.3 0.9-0.5 0.5-0.2 0.9-0.3 0.5-0.1 1.1-0.1 0.6 0 1.1 0.1 0.5 0.2 0.9 0.5 0.4 0.3 0.7 0.9 0.2 0.5 0.2 1.3v8.4h1.3v-8.4q0-0.5-0.1-1 0-0.4-0.2-0.8 0.6-0.4 1.1-0.6 0.6-0.2 1.1-0.3 0.6-0.1 1-0.1 0.6 0 1.1 0.1 0.6 0.2 1 0.5 0.4 0.3 0.6 0.9 0.3 0.5 0.3 1.3zm3.2-3.8v12.2h1.4v-12.2zm0.7-5.1q-0.3 0-0.6 0.2-0.2 0.2-0.2 0.6 0 0.3 0.2 0.5 0.3 0.3 0.6 0.3 0.3 0 0.6-0.3 0.2-0.2 0.2-0.5 0-0.4-0.2-0.6-0.3-0.2-0.6-0.2zm10.3 8.9v8.4h1.3v-8.4q0-0.8-0.2-1.4-0.2-0.7-0.5-1.1-0.4-0.5-0.9-0.9-0.5-0.3-1.2-0.5-0.6-0.2-1.4-0.2-0.7 0-1.3 0.2-0.5 0.1-1.1 0.4-0.5 0.2-1 0.5v-0.8h-1.4v12.2h1.4v-10.4q0.5-0.3 1-0.4 0.5-0.2 1-0.3 0.5-0.1 1.1-0.1 0.6 0 1.1 0.1 0.6 0.2 1.1 0.5 0.4 0.3 0.7 0.9 0.3 0.5 0.3 1.3zm12.4 10v-13.8h-1.4v1.1q-0.6-0.4-1.2-0.7-0.5-0.3-1.1-0.5-0.6-0.1-1.2-0.2-1.4 0-2.3 0.5-0.9 0.4-1.4 1.3-0.5 1-0.5 2.2v4.2q0 2.2 1.1 3.4 1.1 1.2 3.1 1.2 0.6 0 1.1-0.1 0.5-0.2 1-0.4 0.5-0.3 0.8-0.6 0.4-0.3 0.6-0.7v3q0 0.5-0.2 0.9-0.1 0.4-0.3 0.8-0.2 0.3-0.5 0.5-0.3 0.2-0.7 0.4l0.4 1.1q0.9-0.3 1.5-0.8 0.6-0.5 0.9-1.2 0.3-0.7 0.3-1.6zm-1.4-11.2v5.3q0 0.8-0.3 1.4-0.3 0.7-0.7 1.1-0.5 0.4-1.1 0.6-0.6 0.2-1.3 0.2-0.9 0-1.6-0.3-0.6-0.4-1-1-0.3-0.7-0.3-1.8v-4.3q0-0.8 0.3-1.4 0.2-0.6 0.7-0.9 0.4-0.3 1-0.4 0.5-0.2 1.1-0.1 0.4 0 0.8 0.1 0.5 0.1 0.9 0.4 0.5 0.1 0.8 0.4 0.4 0.3 0.7 0.7zm19.5-5.6l0.3-1.2q-0.5-0.3-1.2-0.5-0.6-0.2-1.2-0.3-0.6-0.1-1.3-0.1-1 0-2 0.2-0.9 0.2-1.7 0.7-0.8 0.5-1.3 1.3-0.5 0.8-0.5 2 0 0.9 0.4 1.6 0.4 0.7 1.1 1.2 0.6 0.6 1.5 1 0.8 0.4 1.7 0.7 0.8 0.3 1.7 0.7 0.8 0.4 1.5 0.8 0.6 0.5 1 1.1 0.4 0.6 0.4 1.4 0 1-0.4 1.7-0.3 0.7-0.9 1.1-0.7 0.4-1.5 0.6-0.7 0.2-1.6 0.2-0.8 0-1.8-0.2-0.9-0.3-1.7-0.8-0.9-0.4-1.4-1.1l-0.8 0.9q0.7 0.8 1.6 1.4 0.9 0.6 2 0.8 1 0.3 2.2 0.3 1.1 0 2.1-0.3 1-0.2 1.9-0.8 0.8-0.6 1.3-1.5 0.5-0.9 0.5-2.1 0-1.1-0.4-1.9-0.4-0.9-1.1-1.4-0.7-0.6-1.5-1-0.8-0.5-1.7-0.8-0.9-0.3-1.7-0.7-0.8-0.3-1.5-0.7-0.7-0.5-1.1-1-0.3-0.6-0.3-1.4 0-0.8 0.3-1.3 0.4-0.5 1-0.8 0.7-0.4 1.4-0.5 0.7-0.1 1.3-0.1 0.6 0 1.2 0.1 0.6 0 1.1 0.2 0.6 0.2 1.1 0.5zm5.2 11.9v-1.5l7.4-0.4v-3.2q0-1.3-0.5-2.2-0.5-0.9-1.5-1.4-0.9-0.5-2.3-0.5-1.3 0-2.3 0.5-1 0.5-1.6 1.4-0.6 0.9-0.6 2.3v5q0 1.1 0.3 1.7 0.3 0.7 0.9 1.1 0.6 0.5 1.3 0.6 0.8 0.2 1.7 0.2 1 0 2-0.3 1.1-0.3 2-0.9l-0.5-1q-0.9 0.5-1.8 0.8-0.9 0.2-1.8 0.2-0.6 0-1.1-0.1-0.5-0.1-0.8-0.4-0.4-0.3-0.6-0.7-0.2-0.5-0.2-1.2zm6.1-5.2v2.1l-6.1 0.3v-2.2q0-0.9 0.4-1.6 0.3-0.7 1-1 0.8-0.4 1.7-0.4 0.9 0 1.5 0.3 0.7 0.4 1.1 1 0.4 0.6 0.4 1.5zm9.8-2.8l0.1-1.1q0 0-0.3-0.1-0.3 0-0.8 0-1.3 0.1-2.3 0.4-0.9 0.3-1.8 0.7v-0.8h-1.4v12.2h1.4v-10q0.3-0.2 0.8-0.4 0.5-0.3 1.1-0.4 0.5-0.2 1.1-0.3 0.6-0.2 1.1-0.2 0.4 0 0.7 0 0.3 0 0.3 0zm3.3-0.9h-1.5l3.8 12.2h1.9l3.8-12.2h-1.5l-3.2 10.8zm9.8 0v12.2h1.3v-12.2zm0.8-5.1q-0.4 0-0.6 0.2-0.3 0.3-0.3 0.6 0 0.3 0.3 0.6 0.2 0.2 0.6 0.2 0.3 0 0.5-0.2 0.3-0.3 0.3-0.6 0-0.3-0.3-0.6-0.2-0.2-0.5-0.2zm9.9 6.7l0.4-1.1q-0.8-0.3-1.6-0.5-0.9-0.2-1.7-0.2-1.5 0-2.5 0.5-1 0.6-1.6 1.7-0.5 1-0.5 2.4v3.6q0 1.5 0.6 2.5 0.6 1 1.6 1.5 1.1 0.5 2.5 0.5 0.8 0 1.6-0.1 0.9-0.1 1.6-0.3l-0.3-1.2q0.1 0-0.2 0-0.2 0.1-0.7 0.2-0.4 0-0.9 0.1-0.5 0-1.1 0-0.8 0-1.5-0.2-0.6-0.2-1-0.6-0.4-0.4-0.6-1.1-0.2-0.7-0.2-1.6v-3.1q0-1 0.4-1.8 0.3-0.9 1-1.3 0.7-0.5 1.8-0.5 0.8 0 1.5 0.2 0.8 0.2 1.4 0.4zm3.2 7.3v-1.5l7.4-0.4v-3.1q0-1.4-0.5-2.3-0.5-0.9-1.5-1.4-1-0.4-2.3-0.4-1.3 0-2.3 0.4-1 0.5-1.6 1.4-0.6 0.9-0.6 2.3v5q0 1.1 0.3 1.8 0.3 0.6 0.9 1.1 0.5 0.4 1.3 0.5 0.8 0.2 1.7 0.2 0.9 0 2-0.3 1.1-0.3 2-0.8l-0.5-1.1q-0.9 0.5-1.8 0.8-0.9 0.2-1.8 0.2-0.6 0-1.1-0.1-0.5-0.1-0.9-0.4-0.3-0.3-0.6-0.7-0.1-0.5-0.1-1.2zm6-5.2v2.1l-6 0.3v-2.1q0-1 0.3-1.7 0.4-0.7 1.1-1 0.7-0.4 1.7-0.4 0.8 0 1.5 0.4 0.7 0.3 1 0.9 0.4 0.6 0.4 1.5zm9.9-2.2l0.6-0.9q-0.6-0.4-1.2-0.6-0.5-0.2-1.1-0.2-0.5-0.1-1-0.1-0.7 0-1.4 0.2-0.7 0.2-1.3 0.6-0.6 0.4-0.9 1-0.3 0.6-0.3 1.3 0 0.8 0.3 1.4 0.4 0.6 1 1 0.6 0.4 1.4 0.7 0.7 0.4 1.5 0.7 0.7 0.2 1.3 0.6 0.6 0.4 1 0.8 0.4 0.5 0.4 1.2 0 0.6-0.3 1-0.3 0.4-0.7 0.7-0.5 0.2-1 0.4-0.5 0.1-1 0.1-0.7 0-1.4-0.2-0.7-0.2-1.2-0.5-0.6-0.4-1.2-0.9l-0.8 0.8q0.9 0.9 2.1 1.5 1.2 0.6 2.5 0.6 0.8 0 1.6-0.3 0.7-0.2 1.3-0.6 0.6-0.5 1-1.1 0.4-0.7 0.4-1.6 0-0.9-0.4-1.5-0.4-0.6-1-1-0.6-0.5-1.4-0.8-0.7-0.3-1.4-0.6-0.8-0.3-1.4-0.6-0.6-0.4-1-0.8-0.3-0.4-0.3-1 0-0.5 0.2-0.9 0.3-0.4 0.7-0.6 0.5-0.2 1-0.3 0.5-0.1 1-0.1 0.4 0 0.8 0 0.5 0.1 0.9 0.3 0.4 0.1 0.7 0.3z"/></svg>